<mxfile host="app.diagrams.net" modified="2023-12-31T05:57:50.607Z" agent="Mozilla/5.0 (Windows NT 10.0; Win64; x64) AppleWebKit/537.36 (KHTML, like Gecko) Chrome/120.0.0.0 Safari/537.36" etag="0HJlv_5ics4RX21438ZY" version="22.1.16" type="device">
  <diagram id="R2lEEEUBdFMjLlhIrx00" name="Page-1">
    <mxGraphModel dx="3497" dy="2473" grid="1" gridSize="10" guides="1" tooltips="1" connect="1" arrows="1" fold="1" page="1" pageScale="1" pageWidth="850" pageHeight="1100" math="0" shadow="0" extFonts="Permanent Marker^https://fonts.googleapis.com/css?family=Permanent+Marker">
      <root>
        <mxCell id="0" />
        <mxCell id="1" parent="0" />
        <mxCell id="AEqm9OUdLBlBPRIVhmXT-1" value="&lt;b&gt;Sessions&lt;/b&gt;" style="rounded=1;whiteSpace=wrap;html=1;fontFamily=Times New Roman;fontSize=23;labelBackgroundColor=none;sketch=1;curveFitting=1;jiggle=2;" parent="1" vertex="1">
          <mxGeometry x="200" y="250" width="125" height="70" as="geometry" />
        </mxCell>
        <mxCell id="AEqm9OUdLBlBPRIVhmXT-22" style="rounded=1;orthogonalLoop=1;jettySize=auto;html=1;entryX=0.75;entryY=1;entryDx=0;entryDy=0;endArrow=none;endFill=0;labelBackgroundColor=none;fontColor=default;sketch=1;curveFitting=1;jiggle=2;" parent="1" source="AEqm9OUdLBlBPRIVhmXT-18" target="AEqm9OUdLBlBPRIVhmXT-1" edge="1">
          <mxGeometry relative="1" as="geometry" />
        </mxCell>
        <mxCell id="AEqm9OUdLBlBPRIVhmXT-18" value="&lt;span style=&quot;font-size: 18px;&quot;&gt;date&lt;/span&gt;" style="ellipse;whiteSpace=wrap;html=1;labelBackgroundColor=none;sketch=1;curveFitting=1;jiggle=2;rounded=1;fontStyle=1" parent="1" vertex="1">
          <mxGeometry x="365" y="490" width="120" height="60" as="geometry" />
        </mxCell>
        <mxCell id="AEqm9OUdLBlBPRIVhmXT-30" value="&lt;font style=&quot;font-size: 18px;&quot;&gt;time slot&lt;/font&gt;" style="ellipse;whiteSpace=wrap;html=1;labelBackgroundColor=none;sketch=1;curveFitting=1;jiggle=2;rounded=1;fontStyle=1" parent="1" vertex="1">
          <mxGeometry x="-145" y="295" width="120" height="60" as="geometry" />
        </mxCell>
        <mxCell id="AEqm9OUdLBlBPRIVhmXT-31" value="&lt;font style=&quot;font-size: 18px;&quot;&gt;patientId&lt;/font&gt;" style="ellipse;whiteSpace=wrap;html=1;labelBackgroundColor=none;sketch=1;curveFitting=1;jiggle=2;rounded=1;fontStyle=1" parent="1" vertex="1">
          <mxGeometry x="-105" y="405" width="120" height="60" as="geometry" />
        </mxCell>
        <mxCell id="AEqm9OUdLBlBPRIVhmXT-32" value="&lt;font style=&quot;font-size: 18px;&quot;&gt;type&lt;/font&gt;" style="ellipse;whiteSpace=wrap;html=1;labelBackgroundColor=none;sketch=1;curveFitting=1;jiggle=2;rounded=1;fontStyle=1" parent="1" vertex="1">
          <mxGeometry x="535" y="285" width="120" height="60" as="geometry" />
        </mxCell>
        <mxCell id="AEqm9OUdLBlBPRIVhmXT-33" value="&lt;font style=&quot;font-size: 18px;&quot;&gt;therapistId&lt;/font&gt;" style="ellipse;whiteSpace=wrap;html=1;labelBackgroundColor=none;sketch=1;curveFitting=1;jiggle=2;rounded=1;fontStyle=1" parent="1" vertex="1">
          <mxGeometry x="45" y="480" width="120" height="60" as="geometry" />
        </mxCell>
        <mxCell id="AEqm9OUdLBlBPRIVhmXT-34" value="&lt;font style=&quot;font-size: 18px;&quot;&gt;details&lt;/font&gt;" style="ellipse;whiteSpace=wrap;html=1;labelBackgroundColor=none;sketch=1;curveFitting=1;jiggle=2;rounded=1;fontStyle=1" parent="1" vertex="1">
          <mxGeometry x="195" y="505" width="120" height="60" as="geometry" />
        </mxCell>
        <mxCell id="AEqm9OUdLBlBPRIVhmXT-35" value="&lt;font style=&quot;font-size: 18px;&quot;&gt;onlineSessionLink&lt;/font&gt;" style="ellipse;whiteSpace=wrap;html=1;labelBackgroundColor=none;sketch=1;curveFitting=1;jiggle=2;rounded=1;fontStyle=1" parent="1" vertex="1">
          <mxGeometry x="465" y="395" width="190" height="70" as="geometry" />
        </mxCell>
        <mxCell id="AEqm9OUdLBlBPRIVhmXT-37" style="rounded=1;orthogonalLoop=1;jettySize=auto;html=1;entryX=1;entryY=0.5;entryDx=0;entryDy=0;endArrow=none;endFill=0;exitX=0;exitY=0.5;exitDx=0;exitDy=0;labelBackgroundColor=none;fontColor=default;sketch=1;curveFitting=1;jiggle=2;" parent="1" source="AEqm9OUdLBlBPRIVhmXT-32" target="AEqm9OUdLBlBPRIVhmXT-1" edge="1">
          <mxGeometry relative="1" as="geometry">
            <mxPoint x="391" y="534" as="sourcePoint" />
            <mxPoint x="345" y="635" as="targetPoint" />
          </mxGeometry>
        </mxCell>
        <mxCell id="AEqm9OUdLBlBPRIVhmXT-38" style="rounded=1;orthogonalLoop=1;jettySize=auto;html=1;endArrow=none;endFill=0;exitX=0;exitY=0.75;exitDx=0;exitDy=0;labelBackgroundColor=none;fontColor=default;sketch=1;curveFitting=1;jiggle=2;entryX=1;entryY=0;entryDx=0;entryDy=0;" parent="1" source="AEqm9OUdLBlBPRIVhmXT-1" target="AEqm9OUdLBlBPRIVhmXT-31" edge="1">
          <mxGeometry relative="1" as="geometry">
            <mxPoint x="391" y="624" as="sourcePoint" />
            <mxPoint x="18.757442598398484" y="410.19861360117693" as="targetPoint" />
          </mxGeometry>
        </mxCell>
        <mxCell id="AEqm9OUdLBlBPRIVhmXT-39" style="rounded=1;orthogonalLoop=1;jettySize=auto;html=1;entryX=0.134;entryY=1.015;entryDx=0;entryDy=0;endArrow=none;endFill=0;exitX=0.5;exitY=0;exitDx=0;exitDy=0;labelBackgroundColor=none;fontColor=default;sketch=1;curveFitting=1;jiggle=2;entryPerimeter=0;" parent="1" source="AEqm9OUdLBlBPRIVhmXT-33" target="AEqm9OUdLBlBPRIVhmXT-1" edge="1">
          <mxGeometry relative="1" as="geometry">
            <mxPoint x="401" y="634" as="sourcePoint" />
            <mxPoint x="355" y="735" as="targetPoint" />
          </mxGeometry>
        </mxCell>
        <mxCell id="AEqm9OUdLBlBPRIVhmXT-40" style="rounded=1;orthogonalLoop=1;jettySize=auto;html=1;entryX=0.407;entryY=1.021;entryDx=0;entryDy=0;endArrow=none;endFill=0;exitX=0.5;exitY=0;exitDx=0;exitDy=0;labelBackgroundColor=none;fontColor=default;sketch=1;curveFitting=1;jiggle=2;entryPerimeter=0;" parent="1" source="AEqm9OUdLBlBPRIVhmXT-34" target="AEqm9OUdLBlBPRIVhmXT-1" edge="1">
          <mxGeometry relative="1" as="geometry">
            <mxPoint x="411" y="644" as="sourcePoint" />
            <mxPoint x="365" y="745" as="targetPoint" />
          </mxGeometry>
        </mxCell>
        <mxCell id="AEqm9OUdLBlBPRIVhmXT-41" style="rounded=1;orthogonalLoop=1;jettySize=auto;html=1;entryX=0;entryY=0.5;entryDx=0;entryDy=0;endArrow=none;endFill=0;labelBackgroundColor=none;fontColor=default;sketch=1;curveFitting=1;jiggle=2;" parent="1" source="AEqm9OUdLBlBPRIVhmXT-30" target="AEqm9OUdLBlBPRIVhmXT-1" edge="1">
          <mxGeometry relative="1" as="geometry">
            <mxPoint x="421" y="564" as="sourcePoint" />
            <mxPoint x="375" y="665" as="targetPoint" />
          </mxGeometry>
        </mxCell>
        <mxCell id="AEqm9OUdLBlBPRIVhmXT-44" style="rounded=1;orthogonalLoop=1;jettySize=auto;html=1;entryX=1.011;entryY=0.241;entryDx=0;entryDy=0;endArrow=none;endFill=0;labelBackgroundColor=none;fontColor=default;sketch=1;curveFitting=1;jiggle=2;entryPerimeter=0;" parent="1" source="AEqm9OUdLBlBPRIVhmXT-45" target="AEqm9OUdLBlBPRIVhmXT-43" edge="1">
          <mxGeometry relative="1" as="geometry" />
        </mxCell>
        <mxCell id="AEqm9OUdLBlBPRIVhmXT-45" value="&lt;font style=&quot;font-size: 18px;&quot;&gt;email&lt;/font&gt;" style="ellipse;whiteSpace=wrap;html=1;labelBackgroundColor=none;sketch=1;curveFitting=1;jiggle=2;rounded=1;fontStyle=1" parent="1" vertex="1">
          <mxGeometry x="780" y="-135" width="120" height="60" as="geometry" />
        </mxCell>
        <mxCell id="AEqm9OUdLBlBPRIVhmXT-46" value="&lt;font style=&quot;font-size: 18px;&quot;&gt;mobile No&lt;/font&gt;" style="ellipse;whiteSpace=wrap;html=1;labelBackgroundColor=none;sketch=1;curveFitting=1;jiggle=2;rounded=1;fontStyle=1" parent="1" vertex="1">
          <mxGeometry x="775" y="-30" width="130" height="60" as="geometry" />
        </mxCell>
        <mxCell id="AEqm9OUdLBlBPRIVhmXT-47" value="&lt;font style=&quot;font-size: 18px;&quot;&gt;whatsApp No&lt;/font&gt;" style="ellipse;whiteSpace=wrap;html=1;labelBackgroundColor=none;sketch=1;curveFitting=1;jiggle=2;rounded=1;fontStyle=1" parent="1" vertex="1">
          <mxGeometry x="709.9999999999999" y="70" width="140" height="60" as="geometry" />
        </mxCell>
        <mxCell id="AEqm9OUdLBlBPRIVhmXT-48" value="&lt;font style=&quot;font-size: 18px;&quot;&gt;name&lt;/font&gt;" style="ellipse;whiteSpace=wrap;html=1;labelBackgroundColor=none;sketch=1;curveFitting=1;jiggle=2;rounded=1;fontStyle=1" parent="1" vertex="1">
          <mxGeometry x="690" y="-210" width="120" height="60" as="geometry" />
        </mxCell>
        <mxCell id="AEqm9OUdLBlBPRIVhmXT-49" value="&lt;font style=&quot;font-size: 18px;&quot;&gt;address&lt;/font&gt;" style="ellipse;whiteSpace=wrap;html=1;labelBackgroundColor=none;sketch=1;curveFitting=1;jiggle=2;rounded=1;fontStyle=1" parent="1" vertex="1">
          <mxGeometry x="550" y="80" width="120" height="60" as="geometry" />
        </mxCell>
        <mxCell id="AEqm9OUdLBlBPRIVhmXT-52" style="rounded=1;orthogonalLoop=1;jettySize=auto;html=1;entryX=0.75;entryY=0;entryDx=0;entryDy=0;endArrow=none;endFill=0;exitX=0.266;exitY=0.952;exitDx=0;exitDy=0;labelBackgroundColor=none;fontColor=default;sketch=1;curveFitting=1;jiggle=2;exitPerimeter=0;" parent="1" source="AEqm9OUdLBlBPRIVhmXT-48" target="AEqm9OUdLBlBPRIVhmXT-43" edge="1">
          <mxGeometry relative="1" as="geometry">
            <mxPoint x="686" y="-26" as="sourcePoint" />
            <mxPoint x="640" y="75" as="targetPoint" />
          </mxGeometry>
        </mxCell>
        <mxCell id="AEqm9OUdLBlBPRIVhmXT-53" style="rounded=1;orthogonalLoop=1;jettySize=auto;html=1;endArrow=none;endFill=0;exitX=0.855;exitY=0.997;exitDx=0;exitDy=0;labelBackgroundColor=none;fontColor=default;sketch=1;curveFitting=1;jiggle=2;exitPerimeter=0;" parent="1" source="AEqm9OUdLBlBPRIVhmXT-43" target="AEqm9OUdLBlBPRIVhmXT-47" edge="1">
          <mxGeometry relative="1" as="geometry">
            <mxPoint x="686" y="-26" as="sourcePoint" />
            <mxPoint x="640" y="75" as="targetPoint" />
          </mxGeometry>
        </mxCell>
        <mxCell id="AEqm9OUdLBlBPRIVhmXT-54" style="rounded=1;orthogonalLoop=1;jettySize=auto;html=1;entryX=0.5;entryY=1;entryDx=0;entryDy=0;endArrow=none;endFill=0;exitX=0.5;exitY=0;exitDx=0;exitDy=0;labelBackgroundColor=none;fontColor=default;sketch=1;curveFitting=1;jiggle=2;" parent="1" source="AEqm9OUdLBlBPRIVhmXT-49" target="AEqm9OUdLBlBPRIVhmXT-43" edge="1">
          <mxGeometry relative="1" as="geometry">
            <mxPoint x="696" y="-16" as="sourcePoint" />
            <mxPoint x="650" y="85" as="targetPoint" />
          </mxGeometry>
        </mxCell>
        <mxCell id="AEqm9OUdLBlBPRIVhmXT-56" style="rounded=1;orthogonalLoop=1;jettySize=auto;html=1;entryX=1.012;entryY=0.634;entryDx=0;entryDy=0;endArrow=none;endFill=0;exitX=0;exitY=0.5;exitDx=0;exitDy=0;labelBackgroundColor=none;fontColor=default;sketch=1;curveFitting=1;jiggle=2;entryPerimeter=0;" parent="1" source="AEqm9OUdLBlBPRIVhmXT-46" target="AEqm9OUdLBlBPRIVhmXT-43" edge="1">
          <mxGeometry relative="1" as="geometry">
            <mxPoint x="716" y="4" as="sourcePoint" />
            <mxPoint x="670" y="105" as="targetPoint" />
          </mxGeometry>
        </mxCell>
        <mxCell id="AEqm9OUdLBlBPRIVhmXT-59" value="&lt;b&gt;Therapist&lt;/b&gt;" style="rounded=1;whiteSpace=wrap;html=1;fontFamily=Times New Roman;fontSize=23;labelBackgroundColor=none;sketch=1;curveFitting=1;jiggle=2;" parent="1" vertex="1">
          <mxGeometry x="-130" y="-75" width="120" height="60" as="geometry" />
        </mxCell>
        <mxCell id="AEqm9OUdLBlBPRIVhmXT-60" style="rounded=1;orthogonalLoop=1;jettySize=auto;html=1;entryX=0.5;entryY=1;entryDx=0;entryDy=0;endArrow=none;endFill=0;labelBackgroundColor=none;fontColor=default;exitX=0.5;exitY=0;exitDx=0;exitDy=0;sketch=1;curveFitting=1;jiggle=2;" parent="1" source="AEqm9OUdLBlBPRIVhmXT-61" target="AEqm9OUdLBlBPRIVhmXT-59" edge="1">
          <mxGeometry relative="1" as="geometry" />
        </mxCell>
        <mxCell id="AEqm9OUdLBlBPRIVhmXT-61" value="&lt;font style=&quot;font-size: 18px;&quot;&gt;email&lt;/font&gt;" style="ellipse;whiteSpace=wrap;html=1;labelBackgroundColor=none;sketch=1;curveFitting=1;jiggle=2;rounded=1;fontStyle=1" parent="1" vertex="1">
          <mxGeometry x="-130" y="100" width="120" height="60" as="geometry" />
        </mxCell>
        <mxCell id="AEqm9OUdLBlBPRIVhmXT-62" value="&lt;font style=&quot;font-size: 18px;&quot;&gt;mobile&lt;/font&gt;" style="ellipse;whiteSpace=wrap;html=1;labelBackgroundColor=none;sketch=1;curveFitting=1;jiggle=2;rounded=1;fontStyle=1" parent="1" vertex="1">
          <mxGeometry x="-330" y="15" width="120" height="60" as="geometry" />
        </mxCell>
        <mxCell id="AEqm9OUdLBlBPRIVhmXT-64" value="&lt;font style=&quot;font-size: 18px;&quot;&gt;name&lt;/font&gt;" style="ellipse;whiteSpace=wrap;html=1;labelBackgroundColor=none;sketch=1;curveFitting=1;jiggle=2;rounded=1;fontStyle=1" parent="1" vertex="1">
          <mxGeometry x="-350" y="-155" width="120" height="60" as="geometry" />
        </mxCell>
        <mxCell id="AEqm9OUdLBlBPRIVhmXT-66" style="rounded=1;orthogonalLoop=1;jettySize=auto;html=1;entryX=0;entryY=0.25;entryDx=0;entryDy=0;endArrow=none;endFill=0;exitX=0.901;exitY=0.786;exitDx=0;exitDy=0;labelBackgroundColor=none;fontColor=default;sketch=1;curveFitting=1;jiggle=2;exitPerimeter=0;" parent="1" source="AEqm9OUdLBlBPRIVhmXT-64" target="AEqm9OUdLBlBPRIVhmXT-59" edge="1">
          <mxGeometry relative="1" as="geometry">
            <mxPoint x="-14" y="-56" as="sourcePoint" />
            <mxPoint x="-60" y="45" as="targetPoint" />
          </mxGeometry>
        </mxCell>
        <mxCell id="AEqm9OUdLBlBPRIVhmXT-69" style="rounded=1;orthogonalLoop=1;jettySize=auto;html=1;entryX=0;entryY=1;entryDx=0;entryDy=0;endArrow=none;endFill=0;labelBackgroundColor=none;fontColor=default;sketch=1;curveFitting=1;jiggle=2;" parent="1" source="AEqm9OUdLBlBPRIVhmXT-62" target="AEqm9OUdLBlBPRIVhmXT-59" edge="1">
          <mxGeometry relative="1" as="geometry">
            <mxPoint x="16" y="-26" as="sourcePoint" />
            <mxPoint x="-30" y="75" as="targetPoint" />
          </mxGeometry>
        </mxCell>
        <mxCell id="AEqm9OUdLBlBPRIVhmXT-77" style="edgeStyle=orthogonalEdgeStyle;rounded=1;sketch=1;hachureGap=4;jiggle=2;curveFitting=1;orthogonalLoop=1;jettySize=auto;html=1;entryX=0.504;entryY=0.047;entryDx=0;entryDy=0;fontFamily=Architects Daughter;fontSource=https%3A%2F%2Ffonts.googleapis.com%2Fcss%3Ffamily%3DArchitects%2BDaughter;fontSize=16;entryPerimeter=0;" parent="1" source="AEqm9OUdLBlBPRIVhmXT-80" target="AEqm9OUdLBlBPRIVhmXT-75" edge="1">
          <mxGeometry relative="1" as="geometry" />
        </mxCell>
        <mxCell id="AEqm9OUdLBlBPRIVhmXT-74" value="" style="shape=actor;whiteSpace=wrap;html=1;rounded=1;sketch=1;hachureGap=4;jiggle=2;curveFitting=1;fontFamily=Architects Daughter;fontSource=https%3A%2F%2Ffonts.googleapis.com%2Fcss%3Ffamily%3DArchitects%2BDaughter;fontSize=20;" parent="1" vertex="1">
          <mxGeometry x="225" y="-260" width="60" height="90" as="geometry" />
        </mxCell>
        <mxCell id="iQRbMpA301dKJXY_9Ane-18" style="edgeStyle=orthogonalEdgeStyle;rounded=0;sketch=1;hachureGap=4;jiggle=2;curveFitting=1;orthogonalLoop=1;jettySize=auto;html=1;fontFamily=Architects Daughter;fontSource=https%3A%2F%2Ffonts.googleapis.com%2Fcss%3Ffamily%3DArchitects%2BDaughter;fontSize=16;" edge="1" parent="1" source="iQRbMpA301dKJXY_9Ane-19" target="AEqm9OUdLBlBPRIVhmXT-59">
          <mxGeometry relative="1" as="geometry" />
        </mxCell>
        <mxCell id="iQRbMpA301dKJXY_9Ane-29" style="edgeStyle=orthogonalEdgeStyle;rounded=0;sketch=1;hachureGap=4;jiggle=2;curveFitting=1;orthogonalLoop=1;jettySize=auto;html=1;exitX=1;exitY=0.5;exitDx=0;exitDy=0;fontFamily=Architects Daughter;fontSource=https%3A%2F%2Ffonts.googleapis.com%2Fcss%3Ffamily%3DArchitects%2BDaughter;fontSize=16;" edge="1" parent="1" source="iQRbMpA301dKJXY_9Ane-30" target="AEqm9OUdLBlBPRIVhmXT-43">
          <mxGeometry relative="1" as="geometry">
            <mxPoint x="440" y="-45" as="targetPoint" />
          </mxGeometry>
        </mxCell>
        <mxCell id="AEqm9OUdLBlBPRIVhmXT-75" value="&lt;font style=&quot;font-size: 15px;&quot;&gt;creates&lt;/font&gt;" style="rhombus;whiteSpace=wrap;html=1;labelBackgroundColor=none;sketch=1;curveFitting=1;jiggle=2;rounded=1;fontStyle=1" parent="1" vertex="1">
          <mxGeometry x="200" y="-90" width="110" height="90" as="geometry" />
        </mxCell>
        <mxCell id="AEqm9OUdLBlBPRIVhmXT-76" value="ADMIN" style="rounded=0;whiteSpace=wrap;html=1;sketch=1;hachureGap=4;jiggle=2;curveFitting=1;fontFamily=Architects Daughter;fontSource=https%3A%2F%2Ffonts.googleapis.com%2Fcss%3Ffamily%3DArchitects%2BDaughter;fontSize=20;fontStyle=1" parent="1" vertex="1">
          <mxGeometry x="200" y="-300" width="110" height="30" as="geometry" />
        </mxCell>
        <mxCell id="AEqm9OUdLBlBPRIVhmXT-80" value="1" style="rounded=1;whiteSpace=wrap;html=1;sketch=1;hachureGap=4;jiggle=2;curveFitting=1;fontFamily=Architects Daughter;fontSource=https%3A%2F%2Ffonts.googleapis.com%2Fcss%3Ffamily%3DArchitects%2BDaughter;fontSize=20;" parent="1" vertex="1">
          <mxGeometry x="240" y="-140" width="30" height="30" as="geometry" />
        </mxCell>
        <mxCell id="iQRbMpA301dKJXY_9Ane-19" value="n" style="rounded=1;whiteSpace=wrap;html=1;sketch=1;hachureGap=4;jiggle=2;curveFitting=1;fontFamily=Architects Daughter;fontSource=https%3A%2F%2Ffonts.googleapis.com%2Fcss%3Ffamily%3DArchitects%2BDaughter;fontSize=20;arcSize=50;" vertex="1" parent="1">
          <mxGeometry x="95" y="-60" width="30" height="30" as="geometry" />
        </mxCell>
        <mxCell id="iQRbMpA301dKJXY_9Ane-27" style="rounded=1;orthogonalLoop=1;jettySize=auto;html=1;endArrow=none;endFill=0;labelBackgroundColor=none;fontColor=default;sketch=1;curveFitting=1;jiggle=2;" edge="1" parent="1" source="AEqm9OUdLBlBPRIVhmXT-35" target="AEqm9OUdLBlBPRIVhmXT-1">
          <mxGeometry relative="1" as="geometry">
            <mxPoint x="375" y="535" as="sourcePoint" />
            <mxPoint x="298" y="315" as="targetPoint" />
          </mxGeometry>
        </mxCell>
        <mxCell id="iQRbMpA301dKJXY_9Ane-30" value="n" style="rounded=1;whiteSpace=wrap;html=1;sketch=1;hachureGap=4;jiggle=2;curveFitting=1;fontFamily=Architects Daughter;fontSource=https%3A%2F%2Ffonts.googleapis.com%2Fcss%3Ffamily%3DArchitects%2BDaughter;fontSize=20;arcSize=50;" vertex="1" parent="1">
          <mxGeometry x="395" y="-60" width="30" height="30" as="geometry" />
        </mxCell>
        <mxCell id="iQRbMpA301dKJXY_9Ane-46" style="edgeStyle=orthogonalEdgeStyle;rounded=0;sketch=1;hachureGap=4;jiggle=2;curveFitting=1;orthogonalLoop=1;jettySize=auto;html=1;fontFamily=Architects Daughter;fontSource=https%3A%2F%2Ffonts.googleapis.com%2Fcss%3Ffamily%3DArchitects%2BDaughter;fontSize=16;exitX=0.509;exitY=0.944;exitDx=0;exitDy=0;exitPerimeter=0;entryX=0.439;entryY=0.009;entryDx=0;entryDy=0;entryPerimeter=0;" edge="1" parent="1" source="iQRbMpA301dKJXY_9Ane-47" target="AEqm9OUdLBlBPRIVhmXT-1">
          <mxGeometry relative="1" as="geometry">
            <mxPoint x="310" y="-5" as="sourcePoint" />
            <mxPoint x="260" y="230" as="targetPoint" />
            <Array as="points">
              <mxPoint x="255" y="50" />
              <mxPoint x="255" y="50" />
            </Array>
          </mxGeometry>
        </mxCell>
        <mxCell id="iQRbMpA301dKJXY_9Ane-48" value="" style="edgeStyle=orthogonalEdgeStyle;rounded=0;sketch=1;hachureGap=4;jiggle=2;curveFitting=1;orthogonalLoop=1;jettySize=auto;html=1;entryX=0.5;entryY=0;entryDx=0;entryDy=0;fontFamily=Architects Daughter;fontSource=https%3A%2F%2Ffonts.googleapis.com%2Fcss%3Ffamily%3DArchitects%2BDaughter;fontSize=16;exitX=0.509;exitY=0.944;exitDx=0;exitDy=0;exitPerimeter=0;" edge="1" parent="1" source="AEqm9OUdLBlBPRIVhmXT-75" target="iQRbMpA301dKJXY_9Ane-47">
          <mxGeometry relative="1" as="geometry">
            <mxPoint x="256" y="-5" as="sourcePoint" />
            <mxPoint x="258" y="170" as="targetPoint" />
            <Array as="points">
              <mxPoint x="256" y="50" />
            </Array>
          </mxGeometry>
        </mxCell>
        <mxCell id="iQRbMpA301dKJXY_9Ane-47" value="n" style="rounded=1;whiteSpace=wrap;html=1;sketch=1;hachureGap=4;jiggle=2;curveFitting=1;fontFamily=Architects Daughter;fontSource=https%3A%2F%2Ffonts.googleapis.com%2Fcss%3Ffamily%3DArchitects%2BDaughter;fontSize=20;arcSize=50;" vertex="1" parent="1">
          <mxGeometry x="240" y="65" width="30" height="30" as="geometry" />
        </mxCell>
        <mxCell id="iQRbMpA301dKJXY_9Ane-51" style="edgeStyle=orthogonalEdgeStyle;rounded=0;sketch=1;hachureGap=4;jiggle=2;curveFitting=1;orthogonalLoop=1;jettySize=auto;html=1;entryX=1;entryY=0.75;entryDx=0;entryDy=0;fontFamily=Architects Daughter;fontSource=https%3A%2F%2Ffonts.googleapis.com%2Fcss%3Ffamily%3DArchitects%2BDaughter;fontSize=16;exitX=0.5;exitY=0;exitDx=0;exitDy=0;" edge="1" parent="1" source="iQRbMpA301dKJXY_9Ane-40" target="AEqm9OUdLBlBPRIVhmXT-59">
          <mxGeometry relative="1" as="geometry" />
        </mxCell>
        <mxCell id="AEqm9OUdLBlBPRIVhmXT-70" value="&lt;font style=&quot;font-size: 15px;&quot;&gt;contains&lt;/font&gt;" style="rhombus;whiteSpace=wrap;html=1;labelBackgroundColor=none;sketch=1;curveFitting=1;jiggle=2;rounded=1;fontStyle=1" parent="1" vertex="1">
          <mxGeometry x="70" y="65" width="110" height="90" as="geometry" />
        </mxCell>
        <mxCell id="iQRbMpA301dKJXY_9Ane-40" value="1" style="rounded=1;whiteSpace=wrap;html=1;sketch=1;hachureGap=4;jiggle=2;curveFitting=1;fontFamily=Architects Daughter;fontSource=https%3A%2F%2Ffonts.googleapis.com%2Fcss%3Ffamily%3DArchitects%2BDaughter;fontSize=20;arcSize=50;" vertex="1" parent="1">
          <mxGeometry x="15" y="37.5" width="30" height="30" as="geometry" />
        </mxCell>
        <mxCell id="iQRbMpA301dKJXY_9Ane-53" value="1" style="rounded=1;whiteSpace=wrap;html=1;sketch=1;hachureGap=4;jiggle=2;curveFitting=1;fontFamily=Architects Daughter;fontSource=https%3A%2F%2Ffonts.googleapis.com%2Fcss%3Ffamily%3DArchitects%2BDaughter;fontSize=20;arcSize=50;" vertex="1" parent="1">
          <mxGeometry x="200" y="170" width="30" height="30" as="geometry" />
        </mxCell>
        <mxCell id="iQRbMpA301dKJXY_9Ane-55" style="rounded=1;orthogonalLoop=1;jettySize=auto;html=1;endArrow=none;endFill=0;exitX=0.154;exitY=-0.002;exitDx=0;exitDy=0;labelBackgroundColor=none;fontColor=default;sketch=1;curveFitting=1;jiggle=2;exitPerimeter=0;" edge="1" parent="1" source="AEqm9OUdLBlBPRIVhmXT-1" target="iQRbMpA301dKJXY_9Ane-53">
          <mxGeometry relative="1" as="geometry">
            <mxPoint x="193" y="200" as="sourcePoint" />
            <mxPoint x="-10" y="301" as="targetPoint" />
            <Array as="points">
              <mxPoint x="220" y="230" />
            </Array>
          </mxGeometry>
        </mxCell>
        <mxCell id="iQRbMpA301dKJXY_9Ane-56" style="rounded=1;orthogonalLoop=1;jettySize=auto;html=1;endArrow=none;endFill=0;exitX=0.975;exitY=0.508;exitDx=0;exitDy=0;labelBackgroundColor=none;fontColor=default;sketch=1;curveFitting=1;jiggle=2;exitPerimeter=0;entryX=0.5;entryY=0;entryDx=0;entryDy=0;" edge="1" parent="1" source="AEqm9OUdLBlBPRIVhmXT-70" target="iQRbMpA301dKJXY_9Ane-53">
          <mxGeometry relative="1" as="geometry">
            <mxPoint x="229" y="260" as="sourcePoint" />
            <mxPoint x="227" y="210" as="targetPoint" />
            <Array as="points">
              <mxPoint x="220" y="110" />
            </Array>
          </mxGeometry>
        </mxCell>
        <mxCell id="iQRbMpA301dKJXY_9Ane-57" style="rounded=1;orthogonalLoop=1;jettySize=auto;html=1;endArrow=none;endFill=0;exitX=0.055;exitY=0.515;exitDx=0;exitDy=0;labelBackgroundColor=none;fontColor=default;sketch=1;curveFitting=1;jiggle=2;exitPerimeter=0;entryX=0.5;entryY=1;entryDx=0;entryDy=0;" edge="1" parent="1" source="AEqm9OUdLBlBPRIVhmXT-70" target="iQRbMpA301dKJXY_9Ane-40">
          <mxGeometry relative="1" as="geometry">
            <mxPoint x="187" y="121" as="sourcePoint" />
            <mxPoint x="225" y="180" as="targetPoint" />
            <Array as="points">
              <mxPoint x="30" y="110" />
            </Array>
          </mxGeometry>
        </mxCell>
        <mxCell id="iQRbMpA301dKJXY_9Ane-58" style="rounded=1;orthogonalLoop=1;jettySize=auto;html=1;endArrow=none;endFill=0;exitX=1;exitY=0.5;exitDx=0;exitDy=0;labelBackgroundColor=none;fontColor=default;sketch=1;curveFitting=1;jiggle=2;entryX=0;entryY=0.5;entryDx=0;entryDy=0;" edge="1" parent="1" source="iQRbMpA301dKJXY_9Ane-19" target="AEqm9OUdLBlBPRIVhmXT-75">
          <mxGeometry relative="1" as="geometry">
            <mxPoint x="86" y="121" as="sourcePoint" />
            <mxPoint x="40" y="78" as="targetPoint" />
            <Array as="points" />
          </mxGeometry>
        </mxCell>
        <mxCell id="iQRbMpA301dKJXY_9Ane-59" style="rounded=1;orthogonalLoop=1;jettySize=auto;html=1;endArrow=none;endFill=0;exitX=0;exitY=0.5;exitDx=0;exitDy=0;labelBackgroundColor=none;fontColor=default;sketch=1;curveFitting=1;jiggle=2;entryX=0.97;entryY=0.498;entryDx=0;entryDy=0;entryPerimeter=0;" edge="1" parent="1" source="iQRbMpA301dKJXY_9Ane-30" target="AEqm9OUdLBlBPRIVhmXT-75">
          <mxGeometry relative="1" as="geometry">
            <mxPoint x="135" y="-35" as="sourcePoint" />
            <mxPoint x="210" y="-35" as="targetPoint" />
            <Array as="points" />
          </mxGeometry>
        </mxCell>
        <mxCell id="iQRbMpA301dKJXY_9Ane-60" style="rounded=1;orthogonalLoop=1;jettySize=auto;html=1;endArrow=none;endFill=0;exitX=0.5;exitY=0;exitDx=0;exitDy=0;labelBackgroundColor=none;fontColor=default;sketch=1;curveFitting=1;jiggle=2;entryX=0.5;entryY=1;entryDx=0;entryDy=0;" edge="1" parent="1" source="AEqm9OUdLBlBPRIVhmXT-80" target="AEqm9OUdLBlBPRIVhmXT-74">
          <mxGeometry relative="1" as="geometry">
            <mxPoint x="150" y="-150" as="sourcePoint" />
            <mxPoint x="225" y="-150" as="targetPoint" />
            <Array as="points" />
          </mxGeometry>
        </mxCell>
        <mxCell id="iQRbMpA301dKJXY_9Ane-61" value="&lt;font style=&quot;font-size: 15px;&quot;&gt;contains&lt;/font&gt;" style="rhombus;whiteSpace=wrap;html=1;labelBackgroundColor=none;sketch=1;curveFitting=1;jiggle=2;rounded=1;fontStyle=1" vertex="1" parent="1">
          <mxGeometry x="335" y="67.5" width="110" height="90" as="geometry" />
        </mxCell>
        <mxCell id="iQRbMpA301dKJXY_9Ane-62" style="edgeStyle=orthogonalEdgeStyle;rounded=0;sketch=1;hachureGap=4;jiggle=2;curveFitting=1;orthogonalLoop=1;jettySize=auto;html=1;entryX=0;entryY=0.75;entryDx=0;entryDy=0;fontFamily=Architects Daughter;fontSource=https%3A%2F%2Ffonts.googleapis.com%2Fcss%3Ffamily%3DArchitects%2BDaughter;fontSize=16;" edge="1" parent="1" source="iQRbMpA301dKJXY_9Ane-69" target="AEqm9OUdLBlBPRIVhmXT-43">
          <mxGeometry relative="1" as="geometry">
            <mxPoint x="40" y="48" as="sourcePoint" />
            <mxPoint y="-20" as="targetPoint" />
            <Array as="points">
              <mxPoint x="510" y="-30" />
            </Array>
          </mxGeometry>
        </mxCell>
        <mxCell id="iQRbMpA301dKJXY_9Ane-66" value="1" style="rounded=1;whiteSpace=wrap;html=1;sketch=1;hachureGap=4;jiggle=2;curveFitting=1;fontFamily=Architects Daughter;fontSource=https%3A%2F%2Ffonts.googleapis.com%2Fcss%3Ffamily%3DArchitects%2BDaughter;fontSize=20;arcSize=50;" vertex="1" parent="1">
          <mxGeometry x="280" y="170" width="30" height="30" as="geometry" />
        </mxCell>
        <mxCell id="iQRbMpA301dKJXY_9Ane-67" style="rounded=1;orthogonalLoop=1;jettySize=auto;html=1;endArrow=none;endFill=0;exitX=0;exitY=0.5;exitDx=0;exitDy=0;labelBackgroundColor=none;fontColor=default;sketch=1;curveFitting=1;jiggle=2;entryX=0.5;entryY=0;entryDx=0;entryDy=0;" edge="1" parent="1" source="iQRbMpA301dKJXY_9Ane-61" target="iQRbMpA301dKJXY_9Ane-66">
          <mxGeometry relative="1" as="geometry">
            <mxPoint x="187" y="121" as="sourcePoint" />
            <mxPoint x="225" y="180" as="targetPoint" />
            <Array as="points">
              <mxPoint x="295" y="110" />
            </Array>
          </mxGeometry>
        </mxCell>
        <mxCell id="iQRbMpA301dKJXY_9Ane-68" style="rounded=1;orthogonalLoop=1;jettySize=auto;html=1;endArrow=none;endFill=0;exitX=0.75;exitY=0;exitDx=0;exitDy=0;labelBackgroundColor=none;fontColor=default;sketch=1;curveFitting=1;jiggle=2;entryX=0.5;entryY=1;entryDx=0;entryDy=0;" edge="1" parent="1" source="AEqm9OUdLBlBPRIVhmXT-1" target="iQRbMpA301dKJXY_9Ane-66">
          <mxGeometry relative="1" as="geometry">
            <mxPoint x="229" y="260" as="sourcePoint" />
            <mxPoint x="227" y="210" as="targetPoint" />
            <Array as="points" />
          </mxGeometry>
        </mxCell>
        <mxCell id="iQRbMpA301dKJXY_9Ane-69" value="1" style="rounded=1;whiteSpace=wrap;html=1;sketch=1;hachureGap=4;jiggle=2;curveFitting=1;fontFamily=Architects Daughter;fontSource=https%3A%2F%2Ffonts.googleapis.com%2Fcss%3Ffamily%3DArchitects%2BDaughter;fontSize=20;arcSize=50;" vertex="1" parent="1">
          <mxGeometry x="500" y="30" width="30" height="30" as="geometry" />
        </mxCell>
        <mxCell id="iQRbMpA301dKJXY_9Ane-71" style="rounded=1;orthogonalLoop=1;jettySize=auto;html=1;endArrow=none;endFill=0;exitX=0.5;exitY=1;exitDx=0;exitDy=0;labelBackgroundColor=none;fontColor=default;sketch=1;curveFitting=1;jiggle=2;entryX=0.955;entryY=0.489;entryDx=0;entryDy=0;entryPerimeter=0;" edge="1" parent="1" source="iQRbMpA301dKJXY_9Ane-69" target="iQRbMpA301dKJXY_9Ane-61">
          <mxGeometry relative="1" as="geometry">
            <mxPoint x="500" y="200" as="sourcePoint" />
            <mxPoint x="501" y="150" as="targetPoint" />
            <Array as="points">
              <mxPoint x="515" y="112" />
            </Array>
          </mxGeometry>
        </mxCell>
        <mxCell id="iQRbMpA301dKJXY_9Ane-72" value="&lt;span style=&quot;font-size: 18px;&quot;&gt;patiendId&lt;/span&gt;" style="ellipse;whiteSpace=wrap;html=1;labelBackgroundColor=none;sketch=1;curveFitting=1;jiggle=2;rounded=1;fontStyle=1" vertex="1" parent="1">
          <mxGeometry x="550" y="-222.5" width="120" height="60" as="geometry" />
        </mxCell>
        <mxCell id="iQRbMpA301dKJXY_9Ane-73" style="rounded=1;orthogonalLoop=1;jettySize=auto;html=1;entryX=0.5;entryY=1;entryDx=0;entryDy=0;endArrow=none;endFill=0;labelBackgroundColor=none;fontColor=default;sketch=1;curveFitting=1;jiggle=2;" edge="1" parent="1" source="AEqm9OUdLBlBPRIVhmXT-43" target="iQRbMpA301dKJXY_9Ane-72">
          <mxGeometry relative="1" as="geometry">
            <mxPoint x="610" y="-70" as="sourcePoint" />
            <mxPoint x="620" y="-5" as="targetPoint" />
          </mxGeometry>
        </mxCell>
        <mxCell id="iQRbMpA301dKJXY_9Ane-74" value="" style="rounded=1;orthogonalLoop=1;jettySize=auto;html=1;entryX=0.5;entryY=1;entryDx=0;entryDy=0;endArrow=none;endFill=0;labelBackgroundColor=none;fontColor=default;sketch=1;curveFitting=1;jiggle=2;" edge="1" parent="1" target="AEqm9OUdLBlBPRIVhmXT-43">
          <mxGeometry relative="1" as="geometry">
            <mxPoint x="610" y="-70" as="sourcePoint" />
            <mxPoint x="610" y="-162" as="targetPoint" />
          </mxGeometry>
        </mxCell>
        <mxCell id="AEqm9OUdLBlBPRIVhmXT-43" value="&lt;b&gt;Patient&lt;/b&gt;" style="rounded=1;whiteSpace=wrap;html=1;fontFamily=Times New Roman;fontSize=23;labelBackgroundColor=none;sketch=1;curveFitting=1;jiggle=2;" parent="1" vertex="1">
          <mxGeometry x="550" y="-75" width="120" height="60" as="geometry" />
        </mxCell>
        <mxCell id="iQRbMpA301dKJXY_9Ane-76" value="&lt;font style=&quot;font-size: 18px;&quot;&gt;therapistId&lt;/font&gt;" style="ellipse;whiteSpace=wrap;html=1;labelBackgroundColor=none;sketch=1;curveFitting=1;jiggle=2;rounded=1;fontStyle=1" vertex="1" parent="1">
          <mxGeometry x="-130" y="-230" width="120" height="60" as="geometry" />
        </mxCell>
        <mxCell id="iQRbMpA301dKJXY_9Ane-78" style="rounded=1;orthogonalLoop=1;jettySize=auto;html=1;entryX=0.5;entryY=0;entryDx=0;entryDy=0;endArrow=none;endFill=0;exitX=0.5;exitY=1;exitDx=0;exitDy=0;labelBackgroundColor=none;fontColor=default;sketch=1;curveFitting=1;jiggle=2;" edge="1" parent="1" source="iQRbMpA301dKJXY_9Ane-76" target="AEqm9OUdLBlBPRIVhmXT-59">
          <mxGeometry relative="1" as="geometry">
            <mxPoint x="-230" y="-95" as="sourcePoint" />
            <mxPoint x="-120" y="-50" as="targetPoint" />
          </mxGeometry>
        </mxCell>
      </root>
    </mxGraphModel>
  </diagram>
</mxfile>
